<?xml version="1.0" encoding="utf-8"?>
<!-- Generator: Adobe Illustrator 22.0.1, SVG Export Plug-In . SVG Version: 6.00 Build 0)  -->
<svg version="1.1" id="da514e5c-bf42-40c9-8115-e74edf4d322c"
	 xmlns="http://www.w3.org/2000/svg" xmlns:xlink="http://www.w3.org/1999/xlink" x="0px" y="0px" viewBox="0 0 1792 400"
	 style="enable-background:new 0 0 1792 400;" xml:space="preserve">
<style type="text/css">
	.st0{fill:#FFFFFF;}
	.st1{fill:#385EAA;}
	.st2{fill:#F9BE00;}
</style>
<title>アートボード 1</title>
<path class="st0" d="M297.9,325.6c-0.3,0-0.7,0-1-0.1l-120.3-23.3c-0.8-0.1-1.6-0.2-2.4-0.2c-0.7,0-1.4,0.1-2.1,0.2L51.9,325.5
	c-0.3,0.1-0.7,0.1-1,0.1c-1.6,0-3.1-0.7-4-2c-0.4-0.6-1.1-1.7-0.8-2.8c1.3-4.5,9.8-10.9,20.9-18.7c1.8-1.3,3.4-2.4,4.8-3.4l0.1-0.1
	l0.2-0.1c32-16.5,60.3-25.6,100.7-32.7l0.2,0h3.1l0.2,0c40.4,7.1,68.7,16.3,100.7,32.7l0.2,0.1l0.1,0.1c1.4,1,3,2.2,4.8,3.4
	c11,7.9,19.6,14.2,20.9,18.7c0.3,1.1-0.3,2.3-0.8,2.8C301,324.9,299.5,325.6,297.9,325.6z M273.8,289.3c-0.7,0-1.5-0.2-2.2-0.5
	c-26.5-13.6-56.2-23-93.4-29.6c-1.1-0.2-3-0.4-4.4-0.4l-0.2,0c-0.6,0-1.2,0.1-1.7,0.1c-37.8,6.6-67.9,16.1-94.8,29.9
	c-0.7,0.3-1.4,0.5-2.2,0.5c-1.9,0-3.7-1.2-4.4-3c-0.9-2.2-2.1-5.4-3.5-8.6c-1.6-3.9-3.2-7.9-4.1-10.2c-0.7-1.9-0.1-4.1,1.5-5.3
	l0.1-0.1c30.3-22.5,64.7-37.8,108.4-48.2c0.2-0.1,0.5-0.1,0.7-0.1c0.1,0,0.3,0,0.4,0h0.2c0.1,0,0.3,0,0.4,0c0.3,0,0.5,0,0.7,0.1
	c43.8,10.4,78.2,25.8,108.4,48.2l0.1,0.1c1.6,1.2,2.2,3.4,1.5,5.3c-0.9,2.3-2.5,6.3-4.1,10.2c-1.3,3.2-2.6,6.4-3.5,8.6
	C277.4,288.1,275.7,289.3,273.8,289.3z"/>
<path class="st1" d="M309.3,299.4c20.2-16.1,33.1-34.9,39.9-48.9c1-2.1-0.9-4.3-3.1-3.6c-8.8,2.8-18.8,4.8-28.7,4.6
	c-1.8,0-3.1-1.9-2.4-3.6c13.5-32.8,11.1-74.9-13.1-115.1c-1.2-2-4.3-1.5-4.8,0.8c-3.7,17.9-11.1,32-24.2,41.9
	c-1.6,1.2-3.8,0.2-4.1-1.8c-6.8-48.6-62.6-81.5-93.5-94.2c-0.6-0.3-1.3-0.3-2,0c-30.9,12.6-86.7,45.6-93.5,94.2
	c-0.3,2-2.5,2.9-4.1,1.8c-13.1-9.9-20.5-24.1-24.2-41.9c-0.5-2.3-3.6-2.9-4.8-0.8C22.7,173,20.3,215,33.7,247.7
	c0.7,1.7-0.6,3.6-2.5,3.6c-9.1-0.3-19.9-1.9-28.5-4.5c-2.2-0.6-4.1,1.6-3.1,3.6C7,265.9,22,287.1,45.9,304.2c1.4,1,1.5,3,0.2,4.1
	c-0.8,0.6-1.5,1.3-2.3,1.9c-1.3,1.1-2.4,2.2-3.4,3.4c-2.9,3.6-4,7.3-2.9,10.7c2.4,6.9,8.9,11.3,16.1,9.9l17.8-3.4
	c0,0,80.7-15.2,99.6-18.4c1.7-0.3,3.3,1.2,3,3c-3.4,22.3-15.9,49.3-26.3,61.6c-1.6,1.9,0.1,4.8,2.5,4.3c25.5-5.3,56.6-30.9,67-50.5
	c0.7-1.4,2.4-1.8,3.7-1c20.7,12.8,33.1,37.5,33,64.6c0,2,2.1,3.3,3.8,2.3c21.7-12.1,38.2-37.5,37.1-62.5l0.3,0.1
	c2.8,0.5,5.5,0.2,7.8-0.8c0.7-0.3,1.5-0.3,2.1,0.1c9,4.5,20.7,13.4,28.8,24.7c1.6,2.2,5.1,0.9,4.7-1.9
	c-2.5-16.9-10.5-34.1-23.7-47.6c-1.8-1.9-3.8-3.6-5.8-5.3C307.9,302.4,308,300.4,309.3,299.4z M65.9,263.8
	c30-22.3,64.2-37.5,107.7-47.9c0.2-0.1,0.5,0,0.8,0c0.3,0,0.5-0.1,0.8,0c43.5,10.4,77.7,25.6,107.7,47.9c0,0,0,0,0,0
	c0.9,0.7,1.2,1.9,0.8,2.9c-1.5,4.1-5.6,13.9-7.5,18.8c-0.6,1.4-2.2,2.1-3.6,1.4c-26.6-13.6-56.6-23.2-94-29.8
	c-1.4-0.2-3.6-0.5-5-0.4c-0.7,0-1.3,0.1-2,0.2c-38,6.6-68.5,16.3-95.4,30c-1.4,0.7-3,0.1-3.6-1.4c-1.9-4.9-6-14.7-7.5-18.8
	C64.7,265.7,65,264.5,65.9,263.8C65.9,263.8,65.9,263.8,65.9,263.8z M297.3,323.5L177,300.1c-1.6-0.3-3.5-0.3-5.2,0L51.5,323.5
	c-2.4,0.5-3.5-1.7-3.4-2.1c1.4-5.1,17.4-15.5,24.9-21h0c32.8-16.8,60.8-25.6,100.1-32.5c0.7,0,1.9,0,2.7,0
	c39.3,6.9,67.3,15.7,100.1,32.5h0c7.4,5.5,23.4,15.9,24.9,21C300.8,321.7,299.6,323.9,297.3,323.5z M142.5,355.1
	c0,13.5-10.9,24.4-24.4,24.4s-24.4-10.9-24.4-24.4s10.9-24.4,24.4-24.4S142.5,341.7,142.5,355.1z"/>
<g>
	<path class="st1" d="M502.3,290.3c0,10.9-3.7,19.7-11.2,26.4c-7.4,6.7-17.1,10.1-28.9,10.1c-7.6,0-13.8-2.2-18.5-6.8
		c-4.7-4.5-7-10.5-7-17.9c0-6,1.7-10.8,5.1-14.3c3.4-3.6,9.3-6.5,17.6-8.8c3.4-0.9,8.3-2,14.8-3.2c13.3-2.8,22.7-5.9,28-9.2V290.3z
		 M578.2,356.8c-3.5-1.7-6-5.3-7.8-10.7c-1.7-5.5-2.6-12.9-2.6-22.4v-79c0-20.1-1-34.7-3.1-43.7c-2.1-9.1-5.6-16.9-10.7-23.4
		c-7.2-9.1-17.3-16-30.1-20.5c-12.9-4.5-28.7-6.7-47.4-6.7c-30.1,0-53.4,5.8-69.7,17.4c-16.4,11.6-26.2,29.3-29.6,53h63.6
		c1.4-7.8,5-13.6,10.8-17.6c5.7-4,13.6-6,23.4-6c9,0,15.9,1.6,20.5,4.8c4.6,3.2,6.9,7.8,6.9,13.8v5.1c0,7.4-11.9,13-35.8,16.9
		c-15.9,2.7-29.1,5.2-39.5,7.5c-18.8,4.4-32.8,12-42,22.8c-9.3,10.8-13.9,24.9-13.9,42.2c0,18.8,5.9,33.8,17.7,44.9
		c11.9,11.1,27.9,16.6,48.3,16.6c13.1,0,25.1-2.3,36-7c10.9-4.6,21.2-11.8,31-21.5c0.5,3.8,1,7.6,1.6,11.2c0.6,3.6,1.2,7.1,2,10.4
		h70.3V356.8z"/>
	<path class="st1" d="M590.6,364.7V155.2H658v28.7c7.2-11.3,16.1-19.8,26.6-25.3c10.4-5.5,22.9-8.3,37.4-8.3
		c24.7,0,42.6,6.1,53.6,18.3c11,12.2,16.5,32.2,16.5,59.8v136.2h-69V259.2c0-24.7-2.1-40.4-6.2-47.1c-4.1-6.8-11.8-10.1-22.9-10.1
		c-12.2,0-21,4-26.6,12.1c-5.6,8-8.4,20.8-8.4,38.4v112.2H590.6z"/>
	<path class="st2" d="M816.6,66.7V0.8h68.5v65.9H816.6z M816.6,364.7v-275h68.5v275H816.6z"/>
	<path class="st1" d="M909.9,364.7V155.2h66.4v28.7c7-11.3,15.6-19.8,25.9-25.3c10.3-5.5,22.6-8.3,37-8.3c15.3,0,27.9,2.7,37.9,8.3
		c10.1,5.6,17.7,14,22.8,25.3c6.9-11.2,15.6-19.6,26.2-25.2c10.6-5.6,22.9-8.4,37.2-8.4c22.7,0,39.8,6.2,51.4,18.6
		c11.6,12.4,17.4,30.8,17.4,55.3v140.5h-67.5V245c0-15.9-2.3-27.1-6.9-33.4c-4.6-6.4-12.4-9.5-23.4-9.5c-11.2,0-19.4,4.1-24.7,12.4
		c-5.3,8.2-8,20.9-8,38.1v112.2h-61.1V245c0-15.9-2.3-27.1-6.9-33.4c-4.6-6.4-12.4-9.5-23.5-9.5c-11.2,0-19.4,4.1-24.7,12.4
		c-5.3,8.2-8,20.9-8,38.1v112.2H909.9z"/>
	<path class="st1" d="M1375.1,290.3c0,10.9-3.7,19.7-11.2,26.4c-7.5,6.7-17.1,10.1-28.9,10.1c-7.6,0-13.8-2.2-18.5-6.8
		c-4.7-4.5-7-10.5-7-17.9c0-6,1.7-10.8,5.1-14.3c3.4-3.6,9.3-6.5,17.6-8.8c3.3-0.9,8.3-2,14.8-3.2c13.3-2.8,22.7-5.9,28-9.2V290.3z
		 M1451,356.8c-3.5-1.7-6.1-5.3-7.8-10.7c-1.7-5.5-2.6-12.9-2.6-22.4v-79c0-20.1-1.1-34.7-3.1-43.7c-2.1-9.1-5.6-16.9-10.7-23.4
		c-7.2-9.1-17.3-16-30.2-20.5c-12.9-4.5-28.7-6.7-47.4-6.7c-30.1,0-53.4,5.8-69.7,17.4c-16.4,11.6-26.2,29.3-29.6,53h63.5
		c1.4-7.8,5-13.6,10.8-17.6c5.7-4,13.6-6,23.4-6c9.1,0,15.9,1.6,20.5,4.8c4.6,3.2,6.9,7.8,6.9,13.8v5.1c0,7.4-11.9,13-35.8,16.9
		c-15.9,2.7-29.1,5.2-39.5,7.5c-18.7,4.4-32.7,12-42,22.8c-9.3,10.8-13.9,24.9-13.9,42.2c0,18.8,5.9,33.8,17.8,44.9
		c11.8,11.1,27.9,16.6,48.2,16.6c13.1,0,25.1-2.3,36-7c10.9-4.6,21.3-11.8,31-21.5c0.5,3.8,1.1,7.6,1.7,11.2c0.6,3.6,1.2,7.1,2,10.4
		h70.3V356.8z"/>
	<path class="st1" d="M1444.8,196.6v-41.4h28.8V96.1h69v59.1h35.2v41.4h-35.2v90.8c0,13.9,1.8,23.1,5.4,27.6
		c3.6,4.5,10.4,6.8,20.3,6.8c2.2,0,3.9,0,5.1-0.1c1.2,0,2.4-0.2,3.6-0.3V365c-7.1,1.5-14.2,2.6-21.1,3.3c-7,0.8-13.7,1.2-20.2,1.2
		c-23.9,0-40.2-5.8-49-17.5c-8.8-11.6-13.2-36.4-13.2-74.3v-81.2H1444.8z"/>
	<path class="st1" d="M1658.9,205.8c6.7-7.5,15.7-11.2,27-11.2c11.9,0,21.3,3.8,28.2,11.4c6.8,7.6,10.4,18.2,10.7,31.7l-77.9,0.2
		C1648.1,224,1652.1,213.3,1658.9,205.8z M1708.8,316.1c-5.9,3.8-13.4,5.7-22.5,5.7c-12.4,0-21.7-3.9-28-11.6
		c-6.3-7.7-9.5-19-9.5-33.7h142.1c0.1-1.3,0.2-2.8,0.3-4.5c0.1-1.7,0.1-4.3,0.1-7.6c0-36.2-9.6-64.6-28.7-85.2
		c-19.1-20.6-45.4-30.8-78.9-30.8c-32.4,0-58.2,10.1-77.3,30.3c-19.1,20.2-28.7,47.7-28.7,82.3c0,34,9.5,60.9,28.5,80.6
		c19,19.7,44.8,29.6,77.5,29.6c26.8,0,49.4-6.3,67.5-18.8c18.1-12.5,30.3-30.2,36.5-53.1h-66.5
		C1718.9,306.6,1714.7,312.2,1708.8,316.1z"/>
</g>
</svg>
