<?xml version="1.0" encoding="UTF-8"?>
<svg xmlns="http://www.w3.org/2000/svg" xmlns:xlink="http://www.w3.org/1999/xlink" width="268pt" height="237pt" viewBox="0 0 268 237" version="1.1">
<defs>
<linearGradient id="linear0" gradientUnits="userSpaceOnUse" x1="12.09" y1="82.58" x2="120.73" y2="82.58" gradientTransform="matrix(2.086549,0,0,2.090131,0.721706,0)">
<stop offset="0" style="stop-color:rgb(35.686275%,77.254902%,94.901961%);stop-opacity:1;"/>
<stop offset="0.13" style="stop-color:rgb(33.72549%,73.72549%,91.764706%);stop-opacity:1;"/>
<stop offset="0.33" style="stop-color:rgb(27.843137%,64.313725%,83.137255%);stop-opacity:1;"/>
<stop offset="0.6" style="stop-color:rgb(18.431373%,48.627451%,68.627451%);stop-opacity:1;"/>
<stop offset="0.9" style="stop-color:rgb(5.882353%,27.058824%,49.411765%);stop-opacity:1;"/>
<stop offset="1" style="stop-color:rgb(1.176471%,19.607843%,42.352941%);stop-opacity:1;"/>
</linearGradient>
<linearGradient id="linear1" gradientUnits="userSpaceOnUse" x1="37.05" y1="27.84" x2="127.75" y2="27.84" gradientTransform="matrix(2.086549,0,0,2.090131,0.721706,0)">
<stop offset="0" style="stop-color:rgb(1.176471%,19.607843%,42.352941%);stop-opacity:1;"/>
<stop offset="0.13" style="stop-color:rgb(3.137255%,23.137255%,45.490196%);stop-opacity:1;"/>
<stop offset="0.33" style="stop-color:rgb(9.019608%,32.54902%,54.117647%);stop-opacity:1;"/>
<stop offset="0.6" style="stop-color:rgb(18.431373%,48.235294%,68.627451%);stop-opacity:1;"/>
<stop offset="0.9" style="stop-color:rgb(30.980392%,69.803922%,87.843137%);stop-opacity:1;"/>
<stop offset="1" style="stop-color:rgb(35.686275%,77.254902%,94.901961%);stop-opacity:1;"/>
</linearGradient>
</defs>
<g id="surface1">
<path style=" stroke:none;fill-rule:nonzero;fill:rgb(34.117647%,34.117647%,33.72549%);fill-opacity:1;" d="M 56.828125 107.640625 L 56.160156 108.8125 C 56.0625 108.980469 56.0625 109.191406 56.164062 109.359375 C 56.261719 109.527344 56.445312 109.632812 56.640625 109.628906 L 59.855469 109.628906 C 60.050781 109.625 60.234375 109.726562 60.332031 109.894531 C 60.429688 110.0625 60.433594 110.273438 60.335938 110.441406 L 57.996094 114.476562 C 57.898438 114.648438 57.714844 114.75 57.515625 114.75 L 53.03125 114.75 C 52.835938 114.746094 52.648438 114.847656 52.550781 115.019531 L 48.378906 122.210938 C 47.527344 123.679688 46.347656 124.929688 44.9375 125.867188 C 43.652344 126.78125 42.128906 127.289062 40.554688 127.332031 L 34.292969 127.332031 C 34.125 127.332031 33.964844 127.25 33.863281 127.117188 C 33.761719 126.980469 33.726562 126.804688 33.773438 126.640625 L 35.023438 122 C 35.089844 121.765625 35.304688 121.605469 35.546875 121.605469 L 38.695312 121.605469 C 39.492188 121.523438 40.203125 121.085938 40.636719 120.414062 L 43.433594 115.5625 C 43.53125 115.394531 43.53125 115.183594 43.429688 115.015625 C 43.332031 114.847656 43.148438 114.746094 42.953125 114.75 L 25.382812 114.75 C 25.1875 114.746094 25.003906 114.847656 24.90625 115.019531 L 23.214844 117.945312 C 23.117188 118.117188 22.933594 118.222656 22.734375 118.21875 L 15.953125 118.21875 C 15.757812 118.214844 15.574219 118.316406 15.472656 118.488281 L 10.570312 127.015625 C 10.472656 127.1875 10.289062 127.292969 10.089844 127.289062 L 3.101562 127.289062 C 2.90625 127.292969 2.722656 127.191406 2.621094 127.023438 C 2.523438 126.851562 2.523438 126.644531 2.621094 126.472656 L 6.980469 119.136719 C 7.078125 118.96875 7.078125 118.757812 6.980469 118.589844 C 6.878906 118.421875 6.695312 118.320312 6.5 118.324219 L 1.265625 118.324219 C 1.019531 118.410156 0.746094 118.3125 0.613281 118.089844 C 0.480469 117.863281 0.523438 117.574219 0.722656 117.402344 L 3.476562 112.636719 C 3.574219 112.464844 3.757812 112.363281 3.957031 112.367188 L 10.445312 112.367188 C 10.640625 112.367188 10.828125 112.265625 10.925781 112.09375 L 12.574219 109.230469 L 10.863281 109.230469 C 9.296875 109.230469 8.398438 108.6875 8.023438 107.828125 C 7.804688 106.445312 8.144531 105.035156 8.964844 103.902344 L 18.144531 87.972656 C 18.839844 86.828125 19.753906 85.832031 20.835938 85.046875 C 21.964844 84.136719 23.335938 83.578125 24.78125 83.4375 L 27.117188 83.4375 C 27.3125 83.441406 27.496094 83.335938 27.597656 83.167969 L 28.972656 80.785156 C 29.070312 80.613281 29.070312 80.40625 28.972656 80.234375 C 28.871094 80.066406 28.6875 79.964844 28.492188 79.96875 L 23.195312 79.96875 C 23 79.972656 22.816406 79.871094 22.714844 79.699219 C 22.617188 79.53125 22.617188 79.324219 22.714844 79.152344 L 25.46875 74.386719 C 25.566406 74.214844 25.75 74.113281 25.949219 74.117188 L 32.5 74.117188 C 32.695312 74.121094 32.882812 74.015625 32.980469 73.84375 L 35.902344 68.785156 C 36 68.613281 36.183594 68.511719 36.378906 68.515625 L 43.371094 68.515625 C 43.566406 68.511719 43.75 68.613281 43.847656 68.78125 C 43.949219 68.949219 43.949219 69.160156 43.851562 69.328125 L 41.578125 73.28125 C 41.476562 73.449219 41.480469 73.660156 41.578125 73.828125 C 41.679688 73.996094 41.859375 74.097656 42.054688 74.09375 L 48.167969 74.09375 C 48.367188 74.097656 48.550781 73.996094 48.648438 73.824219 L 49.628906 72.109375 C 49.730469 71.9375 49.914062 71.835938 50.109375 71.835938 L 61.585938 71.835938 C 61.785156 71.839844 61.96875 71.738281 62.066406 71.566406 L 63.671875 68.785156 C 63.773438 68.613281 63.957031 68.511719 64.152344 68.515625 L 71.664062 68.515625 C 71.859375 68.511719 72.042969 68.613281 72.140625 68.78125 C 72.242188 68.949219 72.242188 69.160156 72.144531 69.328125 L 71.164062 71.023438 C 71.066406 71.191406 71.066406 71.402344 71.167969 71.570312 C 71.265625 71.738281 71.449219 71.839844 71.644531 71.835938 L 81.535156 71.835938 C 81.730469 71.835938 81.910156 71.9375 82.011719 72.105469 C 82.109375 72.273438 82.113281 72.484375 82.011719 72.652344 L 79.613281 76.832031 C 79.515625 77.003906 79.332031 77.109375 79.132812 77.105469 L 67.867188 77.105469 C 67.714844 77.125 67.578125 77.207031 67.492188 77.335938 L 66.824219 78.503906 C 66.726562 78.675781 66.726562 78.882812 66.824219 79.054688 C 66.925781 79.222656 67.109375 79.324219 67.304688 79.320312 L 71.644531 79.320312 C 72.714844 79.183594 73.777344 79.613281 74.460938 80.449219 C 75.023438 81.304688 74.917969 82.707031 73.875 84.523438 L 69.035156 92.886719 C 68.464844 93.824219 67.761719 94.675781 66.949219 95.414062 C 65.957031 96.339844 64.785156 97.050781 63.507812 97.503906 L 64.757812 97.503906 C 64.9375 97.5 65.109375 97.585938 65.210938 97.730469 C 65.316406 97.878906 65.339844 98.066406 65.28125 98.234375 C 64.320312 101.015625 63.621094 103.875 63.191406 106.785156 C 63.152344 107.050781 62.921875 107.246094 62.652344 107.246094 L 57.308594 107.246094 C 57.082031 107.261719 56.890625 107.421875 56.828125 107.640625 Z M 18.1875 98.695312 L 17.414062 98.695312 C 17.214844 98.691406 17.03125 98.796875 16.933594 98.96875 L 14.847656 102.6875 C 14.617188 103.085938 14.722656 103.691406 15.097656 103.691406 L 16.035156 103.691406 C 16.234375 103.695312 16.417969 103.589844 16.515625 103.417969 L 18.667969 99.511719 C 18.765625 99.339844 18.761719 99.132812 18.664062 98.964844 C 18.5625 98.792969 18.382812 98.691406 18.1875 98.695312 Z M 56.246094 105.363281 C 47.480469 105.949219 39.71875 106.386719 31.207031 106.660156 C 31.007812 106.671875 30.816406 106.570312 30.710938 106.402344 C 30.609375 106.230469 30.605469 106.015625 30.707031 105.84375 L 33.210938 101.496094 C 33.304688 101.332031 33.476562 101.230469 33.667969 101.226562 C 36.902344 101.226562 41.347656 101.101562 44.726562 100.910156 C 44.910156 100.902344 45.074219 100.796875 45.164062 100.640625 L 46.167969 98.925781 C 46.265625 98.757812 46.261719 98.546875 46.164062 98.378906 C 46.066406 98.210938 45.882812 98.105469 45.6875 98.109375 L 41.472656 98.109375 C 39.699219 98.109375 38.507812 97.566406 38.132812 96.585938 C 37.886719 95.203125 38.226562 93.777344 39.074219 92.65625 L 43.953125 84.296875 C 44.785156 82.859375 45.96875 81.664062 47.398438 80.824219 C 48.742188 79.964844 50.289062 79.480469 51.882812 79.425781 L 57.183594 79.425781 C 57.382812 79.429688 57.566406 79.324219 57.664062 79.152344 L 58.332031 77.984375 C 58.429688 77.8125 58.429688 77.605469 58.328125 77.433594 C 58.230469 77.265625 58.046875 77.164062 57.851562 77.167969 L 47.417969 77.167969 C 47.222656 77.164062 47.039062 77.269531 46.9375 77.4375 L 45.601562 79.757812 C 45.503906 79.929688 45.320312 80.035156 45.125 80.03125 L 37.988281 80.03125 C 37.789062 80.027344 37.605469 80.132812 37.507812 80.304688 L 35.671875 83.5 L 37.757812 83.5 C 39.136719 83.5 40.09375 84.023438 40.386719 84.964844 C 40.675781 86.117188 40.433594 87.335938 39.71875 88.289062 L 30.328125 104.507812 C 29.574219 105.722656 28.597656 106.785156 27.449219 107.640625 C 26.300781 108.59375 24.890625 109.175781 23.402344 109.3125 L 21.128906 109.3125 C 20.929688 109.308594 20.746094 109.414062 20.648438 109.585938 L 19.480469 111.675781 C 19.382812 111.84375 19.382812 112.054688 19.480469 112.222656 C 19.582031 112.390625 19.765625 112.496094 19.960938 112.492188 L 25.761719 112.492188 C 25.957031 112.496094 26.140625 112.390625 26.238281 112.21875 L 27.492188 110.128906 C 27.589844 109.957031 27.773438 109.855469 27.972656 109.855469 L 46.625 109.855469 C 46.824219 109.859375 47.007812 109.757812 47.105469 109.585938 L 48.335938 107.496094 C 48.433594 107.324219 48.621094 107.21875 48.816406 107.222656 L 55.617188 107.222656 C 55.882812 107.230469 56.109375 107.042969 56.160156 106.785156 C 56.121094 106.117188 56.183594 105.636719 56.246094 105.363281 Z M 23.800781 88.976562 C 23.101562 88.996094 22.457031 89.367188 22.089844 89.960938 L 20.523438 92.699219 C 20.425781 92.867188 20.425781 93.078125 20.527344 93.246094 C 20.625 93.414062 20.808594 93.515625 21.003906 93.511719 L 21.816406 93.511719 C 22.015625 93.515625 22.199219 93.410156 22.296875 93.242188 L 24.382812 89.792969 C 24.5 89.605469 24.492188 89.367188 24.363281 89.1875 C 24.234375 89.011719 24.011719 88.925781 23.800781 88.976562 Z M 27.511719 98.71875 L 26.699219 98.71875 C 26.5 98.714844 26.316406 98.816406 26.21875 98.988281 L 23.484375 103.710938 L 24.738281 103.710938 C 25.34375 103.636719 25.871094 103.261719 26.136719 102.710938 L 27.972656 99.53125 C 28.078125 99.363281 28.085938 99.152344 27.992188 98.976562 C 27.894531 98.804688 27.710938 98.695312 27.511719 98.695312 Z M 24.050781 124.34375 C 24.4375 121.882812 24.96875 119.445312 25.636719 117.046875 C 25.691406 116.804688 25.90625 116.632812 26.15625 116.628906 L 33.710938 116.628906 C 33.878906 116.628906 34.039062 116.710938 34.140625 116.84375 C 34.242188 116.980469 34.277344 117.15625 34.230469 117.320312 C 33.5625 119.679688 33.09375 122.089844 32.832031 124.53125 C 32.800781 124.804688 32.566406 125.011719 32.292969 125.011719 L 24.570312 125.011719 C 24.40625 125.007812 24.25 124.933594 24.148438 124.800781 C 24.046875 124.671875 24.011719 124.503906 24.050781 124.34375 Z M 33.5625 89.875 C 33.835938 89.414062 33.6875 88.996094 33.25 88.996094 L 32.3125 88.996094 C 32.113281 88.992188 31.929688 89.097656 31.832031 89.269531 L 29.746094 92.71875 C 29.648438 92.886719 29.648438 93.097656 29.75 93.265625 C 29.847656 93.433594 30.03125 93.535156 30.226562 93.535156 L 31.039062 93.535156 C 31.238281 93.535156 31.421875 93.433594 31.519531 93.261719 Z M 49.984375 90.816406 L 47.648438 90.816406 C 47.449219 90.8125 47.265625 90.917969 47.167969 91.089844 L 46.394531 92.40625 C 46.125 92.863281 46.394531 93.40625 46.773438 93.40625 L 49.109375 93.40625 C 49.304688 93.410156 49.488281 93.308594 49.589844 93.136719 L 50.464844 91.632812 C 50.585938 91.460938 50.597656 91.234375 50.496094 91.050781 C 50.394531 90.867188 50.195312 90.761719 49.984375 90.773438 Z M 54.160156 85.046875 C 54.257812 84.878906 54.253906 84.667969 54.15625 84.5 C 54.054688 84.332031 53.875 84.230469 53.679688 84.230469 L 52.09375 84.230469 C 51.421875 84.3125 50.820312 84.675781 50.445312 85.234375 L 49.589844 86.699219 L 52.863281 86.699219 C 53.0625 86.703125 53.246094 86.597656 53.34375 86.425781 Z M 57.664062 98.152344 L 55.578125 98.152344 C 55.378906 98.148438 55.195312 98.253906 55.097656 98.425781 L 54.410156 99.617188 C 54.308594 99.789062 54.3125 100.003906 54.414062 100.171875 C 54.519531 100.34375 54.710938 100.441406 54.910156 100.429688 L 57.289062 100.199219 C 57.488281 100.171875 57.65625 100.035156 57.726562 99.84375 L 58.058594 98.882812 C 58.144531 98.742188 58.160156 98.570312 58.105469 98.417969 C 58.046875 98.261719 57.921875 98.140625 57.769531 98.089844 Z M 63.316406 90.773438 L 59.980469 90.773438 C 59.78125 90.769531 59.597656 90.875 59.5 91.046875 L 58.625 92.550781 C 58.527344 92.722656 58.527344 92.929688 58.625 93.097656 C 58.726562 93.269531 58.90625 93.371094 59.101562 93.367188 L 60.941406 93.367188 C 61.550781 93.265625 62.085938 92.898438 62.398438 92.363281 Z M 66.511719 85.234375 C 66.824219 84.691406 66.675781 84.167969 66.175781 84.167969 L 63.796875 84.167969 C 63.601562 84.164062 63.417969 84.269531 63.316406 84.441406 L 62.523438 85.820312 C 62.425781 85.992188 62.429688 86.199219 62.527344 86.367188 C 62.628906 86.539062 62.808594 86.640625 63.003906 86.636719 L 65.40625 86.636719 C 65.601562 86.640625 65.785156 86.535156 65.882812 86.363281 Z M 66.511719 85.234375 "/>
<path style=" stroke:none;fill-rule:nonzero;fill:rgb(34.117647%,34.117647%,33.72549%);fill-opacity:1;" d="M 104.609375 126.996094 C 104.609375 125.886719 104.609375 124.738281 104.609375 123.589844 C 104.617188 123.324219 104.46875 123.078125 104.226562 122.964844 C 103.988281 122.851562 103.703125 122.894531 103.503906 123.066406 C 101.792969 124.570312 99.792969 126.242188 98.246094 127.457031 C 98.128906 127.550781 97.980469 127.605469 97.828125 127.601562 L 88.542969 127.601562 L 89.902344 126.472656 L 77.652344 126.472656 C 77.492188 126.480469 77.339844 126.425781 77.214844 126.328125 C 76.917969 126.054688 76.636719 125.761719 76.378906 125.449219 C 76.183594 125.222656 75.859375 125.152344 75.585938 125.28125 C 74.523438 125.761719 72.4375 126.621094 71.269531 127.039062 L 61.105469 127.039062 C 60.78125 127.046875 60.496094 126.816406 60.433594 126.496094 C 60.371094 126.175781 60.550781 125.855469 60.855469 125.742188 C 63.671875 124.675781 66.636719 123.464844 69.371094 122.148438 C 69.679688 121.949219 69.773438 121.539062 69.578125 121.226562 C 69.015625 120.683594 68.410156 120.015625 67.886719 119.429688 C 67.367188 118.84375 67.449219 117.90625 67.886719 116.902344 C 68.292969 116.191406 68.792969 115.535156 69.371094 114.957031 C 69.5625 114.769531 69.625 114.480469 69.523438 114.226562 C 69.425781 113.976562 69.179688 113.808594 68.910156 113.808594 L 66.46875 113.808594 C 66.230469 113.808594 66.007812 113.683594 65.886719 113.476562 C 65.765625 113.269531 65.765625 113.011719 65.882812 112.804688 L 67.972656 109.019531 C 68.089844 108.8125 68.316406 108.683594 68.554688 108.6875 L 76.628906 108.6875 C 76.78125 108.6875 76.929688 108.636719 77.046875 108.539062 C 77.652344 108.058594 78.425781 107.433594 79.132812 106.804688 C 79.359375 106.625 79.445312 106.320312 79.34375 106.050781 C 79.246094 105.78125 78.984375 105.605469 78.695312 105.613281 L 76.003906 105.613281 C 75.183594 105.746094 74.363281 105.375 73.917969 104.671875 C 73.46875 103.691406 73.597656 102.542969 74.25 101.683594 L 76.546875 97.691406 C 77.246094 96.480469 78.226562 95.457031 79.40625 94.703125 C 80.4375 94.042969 81.625 93.675781 82.847656 93.636719 L 89.652344 93.636719 C 89.890625 93.640625 90.113281 93.511719 90.234375 93.304688 L 90.964844 92.050781 C 91.085938 91.839844 91.085938 91.585938 90.964844 91.378906 C 90.84375 91.171875 90.621094 91.042969 90.378906 91.046875 L 86.269531 91.046875 C 85.117188 91.183594 83.972656 90.746094 83.203125 89.875 C 82.679688 89.144531 82.742188 87.953125 83.746094 86.21875 L 84.433594 85.027344 C 84.554688 84.820312 84.554688 84.5625 84.433594 84.355469 C 84.3125 84.148438 84.089844 84.019531 83.851562 84.023438 L 83.535156 84.023438 C 83.296875 84.027344 83.074219 83.898438 82.953125 83.691406 C 82.832031 83.484375 82.832031 83.226562 82.953125 83.019531 L 85.039062 79.363281 C 85.160156 79.152344 85.382812 79.027344 85.625 79.027344 L 87.5 79.027344 C 87.742188 79.03125 87.964844 78.902344 88.085938 78.695312 L 89.546875 76.164062 C 90.28125 74.933594 91.304688 73.898438 92.53125 73.15625 C 93.511719 72.519531 94.65625 72.171875 95.828125 72.152344 L 102.085938 72.152344 C 102.328125 72.152344 102.550781 72.027344 102.671875 71.816406 L 104.421875 68.765625 C 104.542969 68.554688 104.765625 68.429688 105.007812 68.429688 L 111.578125 68.429688 C 111.820312 68.429688 112.042969 68.554688 112.164062 68.761719 C 112.285156 68.96875 112.285156 69.226562 112.164062 69.433594 L 111.183594 71.148438 C 111.0625 71.355469 111.0625 71.613281 111.183594 71.820312 C 111.304688 72.027344 111.527344 72.152344 111.769531 72.152344 L 116.714844 72.152344 C 118.230469 72.152344 119.152344 72.617188 119.488281 73.550781 C 119.667969 74.722656 119.382812 75.914062 118.695312 76.875 L 118.046875 78.003906 C 117.929688 78.210938 117.929688 78.46875 118.050781 78.675781 C 118.171875 78.882812 118.394531 79.007812 118.632812 79.007812 C 118.871094 79.003906 119.09375 79.132812 119.214844 79.339844 C 119.335938 79.546875 119.335938 79.800781 119.21875 80.011719 L 117.128906 83.667969 C 117.011719 83.875 116.785156 84.003906 116.546875 84.003906 L 115.003906 84.003906 C 114.761719 84 114.539062 84.128906 114.417969 84.335938 L 113.039062 86.742188 C 112.449219 87.765625 111.671875 88.675781 110.746094 89.414062 C 109.519531 90.371094 108.019531 90.90625 106.46875 90.941406 L 100.207031 90.941406 C 99.96875 90.941406 99.746094 91.066406 99.625 91.277344 L 98.894531 92.53125 C 98.773438 92.738281 98.773438 92.996094 98.894531 93.203125 C 99.015625 93.410156 99.238281 93.535156 99.476562 93.535156 L 105.300781 93.535156 C 106.800781 93.535156 107.71875 93.929688 108.074219 94.726562 C 108.3125 95.816406 108.070312 96.960938 107.40625 97.859375 L 105.632812 100.933594 C 104.945312 102.214844 103.984375 103.328125 102.816406 104.191406 C 101.523438 105.101562 99.972656 105.570312 98.394531 105.53125 L 90.316406 105.53125 C 90.148438 105.523438 89.984375 105.585938 89.859375 105.699219 C 89.359375 106.179688 88.648438 106.785156 87.9375 107.390625 C 87.582031 107.507812 87.386719 107.890625 87.5 108.246094 C 87.617188 108.605469 88 108.800781 88.355469 108.6875 L 101.523438 108.6875 C 101.761719 108.683594 101.984375 108.8125 102.105469 109.019531 C 102.226562 109.226562 102.226562 109.480469 102.105469 109.691406 L 100.019531 113.472656 C 99.898438 113.683594 99.675781 113.808594 99.4375 113.808594 L 95.074219 113.808594 C 94.894531 113.804688 94.71875 113.882812 94.59375 114.015625 C 92.125 116.664062 89.269531 118.917969 86.125 120.707031 C 85.941406 120.828125 85.832031 121.035156 85.832031 121.257812 C 85.832031 121.480469 85.941406 121.6875 86.125 121.8125 C 87.71875 123.023438 89.429688 124.066406 91.234375 124.925781 C 91.453125 125.058594 91.726562 125.058594 91.945312 124.925781 C 96.574219 121.257812 100.949219 117.285156 105.050781 113.035156 C 105.136719 112.941406 105.191406 112.824219 105.214844 112.699219 C 106.507812 106.636719 108.132812 100.652344 110.078125 94.765625 C 110.167969 94.488281 110.429688 94.300781 110.722656 94.308594 L 117.296875 94.308594 C 117.519531 94.304688 117.730469 94.414062 117.855469 94.597656 C 117.980469 94.785156 118.007812 95.019531 117.921875 95.226562 C 117.546875 96.1875 117.214844 97.128906 116.921875 98.046875 C 116.800781 98.363281 116.929688 98.71875 117.230469 98.878906 C 117.527344 99.039062 117.894531 98.953125 118.089844 98.675781 C 121.03125 94.871094 124.351562 90.042969 126.9375 86.007812 C 127.066406 85.804688 127.074219 85.542969 126.957031 85.332031 C 126.839844 85.117188 126.617188 84.984375 126.375 84.984375 L 125.707031 84.984375 C 125.5 84.988281 125.308594 85.089844 125.183594 85.257812 C 123.828125 87.054688 121.617188 89.6875 119.84375 91.757812 C 119.714844 91.902344 119.535156 91.984375 119.34375 91.988281 L 112.875 91.988281 C 112.609375 91.992188 112.363281 91.84375 112.25 91.601562 C 112.140625 91.363281 112.179688 91.078125 112.351562 90.878906 C 118.152344 83.980469 123.847656 76.4375 129.148438 68.808594 C 129.269531 68.625 129.472656 68.519531 129.691406 68.515625 L 136.347656 68.515625 C 136.601562 68.511719 136.832031 68.652344 136.949219 68.878906 C 137.0625 69.105469 137.039062 69.375 136.890625 69.582031 C 134.804688 72.464844 132.570312 75.640625 130.902344 77.941406 C 130.75 78.144531 130.730469 78.417969 130.84375 78.640625 C 130.957031 78.867188 131.191406 79.007812 131.445312 79.007812 L 140.144531 79.007812 C 140.382812 79.003906 140.605469 79.132812 140.726562 79.339844 C 140.847656 79.546875 140.847656 79.800781 140.730469 80.011719 L 138.058594 84.648438 C 137.9375 84.859375 137.714844 84.988281 137.472656 84.984375 L 136.203125 84.984375 C 135.976562 84.980469 135.765625 85.089844 135.636719 85.277344 C 129.25 95.054688 122.058594 104.28125 114.148438 112.867188 C 114.042969 112.976562 113.976562 113.113281 113.957031 113.265625 C 113.433594 117.8125 113.433594 122.40625 113.957031 126.953125 C 113.984375 127.144531 113.921875 127.339844 113.796875 127.484375 C 113.667969 127.625 113.484375 127.707031 113.289062 127.707031 L 105.300781 127.707031 C 105.113281 127.714844 104.929688 127.640625 104.796875 127.503906 C 104.667969 127.367188 104.597656 127.183594 104.609375 126.996094 Z M 80.554688 113.828125 C 80.382812 113.824219 80.21875 113.882812 80.09375 113.996094 C 79.675781 114.371094 79.070312 114.875 78.589844 115.230469 C 78.113281 115.585938 78.152344 115.898438 78.257812 116.023438 C 78.734375 116.488281 79.269531 116.894531 79.84375 117.234375 C 80.042969 117.347656 80.289062 117.347656 80.492188 117.234375 C 81.761719 116.601562 82.964844 115.835938 84.078125 114.957031 C 84.320312 114.785156 84.417969 114.476562 84.320312 114.195312 C 84.226562 113.914062 83.957031 113.730469 83.660156 113.746094 Z M 86.9375 99.199219 C 87.058594 98.988281 87.058594 98.734375 86.9375 98.527344 C 86.816406 98.320312 86.59375 98.191406 86.355469 98.195312 L 85.019531 98.195312 C 84.457031 98.261719 83.953125 98.574219 83.640625 99.050781 L 82.785156 100.515625 C 82.515625 100.972656 82.785156 101.246094 83.183594 101.246094 L 85.371094 101.246094 C 85.613281 101.25 85.835938 101.121094 85.957031 100.910156 Z M 94.429688 84.191406 L 92.84375 84.191406 C 92.601562 84.1875 92.378906 84.316406 92.257812 84.523438 L 91.613281 85.652344 C 91.257812 86.257812 91.402344 86.78125 91.964844 86.78125 L 93.71875 86.78125 C 93.960938 86.785156 94.183594 86.65625 94.304688 86.449219 L 95.035156 85.195312 C 95.207031 84.980469 95.234375 84.683594 95.101562 84.445312 C 94.96875 84.203125 94.699219 84.070312 94.429688 84.105469 Z M 98.957031 98.820312 C 99.039062 98.664062 99.03125 98.476562 98.933594 98.324219 C 98.839844 98.175781 98.675781 98.085938 98.496094 98.089844 L 96.054688 98.089844 C 95.816406 98.085938 95.59375 98.214844 95.472656 98.425781 L 94.492188 100.136719 C 94.371094 100.347656 94.371094 100.601562 94.492188 100.808594 C 94.613281 101.015625 94.835938 101.144531 95.074219 101.140625 L 96.703125 101.140625 C 97.203125 101.078125 97.652344 100.8125 97.953125 100.410156 Z M 99.289062 77.710938 C 99.40625 77.515625 99.414062 77.277344 99.3125 77.074219 C 99.210938 76.871094 99.015625 76.734375 98.789062 76.707031 L 97.539062 76.707031 C 96.96875 76.804688 96.472656 77.152344 96.179688 77.648438 L 95.324219 79.113281 L 98.078125 79.113281 C 98.320312 79.113281 98.542969 78.984375 98.664062 78.777344 Z M 107.136719 84.105469 L 104.109375 84.105469 C 103.871094 84.105469 103.644531 84.234375 103.527344 84.441406 L 102.796875 85.695312 C 102.675781 85.902344 102.675781 86.160156 102.796875 86.367188 C 102.917969 86.574219 103.140625 86.699219 103.378906 86.699219 L 104.863281 86.699219 C 105.480469 86.628906 106.023438 86.253906 106.300781 85.695312 Z M 110.871094 77.648438 C 111.140625 77.1875 110.871094 76.707031 110.472656 76.707031 L 108.386719 76.707031 C 108.148438 76.707031 107.921875 76.832031 107.804688 77.042969 L 107.199219 78.085938 C 107.078125 78.296875 107.078125 78.550781 107.199219 78.757812 C 107.320312 78.964844 107.542969 79.09375 107.78125 79.089844 L 109.703125 79.089844 C 109.941406 79.09375 110.167969 78.964844 110.285156 78.757812 Z M 110.871094 77.648438 "/>
<path style=" stroke:none;fill-rule:nonzero;fill:rgb(34.117647%,34.117647%,33.72549%);fill-opacity:1;" d="M 128 125.972656 L 161.011719 68.785156 C 161.160156 68.523438 161.441406 68.367188 161.742188 68.367188 L 168.625 68.367188 C 168.925781 68.367188 169.203125 68.523438 169.355469 68.78125 C 169.503906 69.042969 169.507812 69.363281 169.355469 69.621094 L 136.347656 126.808594 C 136.195312 127.070312 135.917969 127.230469 135.617188 127.226562 L 128.730469 127.226562 C 128.433594 127.230469 128.152344 127.070312 128.003906 126.8125 C 127.851562 126.550781 127.851562 126.230469 128 125.972656 Z M 140.164062 99.699219 L 137.265625 99.699219 C 136.953125 99.703125 136.664062 99.527344 136.519531 99.25 C 136.375 98.972656 136.398438 98.636719 136.578125 98.382812 C 140.355469 92.699219 144.066406 87.117188 147.511719 81.367188 C 147.664062 81.121094 147.929688 80.972656 148.21875 80.972656 L 151.160156 80.972656 C 151.464844 80.972656 151.742188 81.136719 151.890625 81.402344 C 152.039062 81.664062 152.03125 81.988281 151.871094 82.246094 C 148.34375 88.015625 144.695312 93.722656 140.855469 99.324219 C 140.703125 99.554688 140.445312 99.695312 140.164062 99.699219 Z M 166.351562 126.496094 C 165.828125 122.332031 165.828125 118.117188 166.351562 113.953125 C 166.40625 113.597656 166.222656 113.246094 165.898438 113.082031 C 165.578125 112.921875 165.1875 112.988281 164.933594 113.242188 C 160.152344 118.117188 155.09375 122.707031 149.785156 126.996094 C 149.632812 127.121094 149.441406 127.1875 149.242188 127.183594 L 140.894531 127.183594 C 140.53125 127.195312 140.207031 126.964844 140.085938 126.621094 C 139.96875 126.277344 140.082031 125.898438 140.375 125.679688 C 148.71875 119.472656 156.320312 112.328125 163.035156 104.382812 C 163.238281 104.128906 163.273438 103.78125 163.132812 103.488281 C 162.988281 103.199219 162.691406 103.015625 162.367188 103.023438 L 155.25 103.023438 C 154.953125 103.023438 154.675781 102.867188 154.523438 102.609375 C 154.371094 102.347656 154.371094 102.027344 154.519531 101.769531 L 157.210938 97.128906 C 157.363281 96.867188 157.640625 96.707031 157.941406 96.710938 L 167.957031 96.710938 C 168.242188 96.714844 168.511719 96.574219 168.667969 96.335938 C 170.753906 93.15625 173.695312 88.351562 175.847656 84.714844 C 175.996094 84.453125 175.996094 84.132812 175.84375 83.875 C 175.691406 83.613281 175.414062 83.457031 175.117188 83.457031 L 169.128906 83.457031 C 168.828125 83.460938 168.550781 83.304688 168.398438 83.042969 C 168.246094 82.785156 168.246094 82.464844 168.398438 82.203125 L 171.089844 77.542969 C 171.238281 77.28125 171.519531 77.125 171.820312 77.125 L 179.601562 77.125 C 179.902344 77.128906 180.179688 76.96875 180.332031 76.707031 L 184.878906 68.808594 C 185.03125 68.546875 185.308594 68.386719 185.609375 68.390625 L 192.683594 68.390625 C 192.984375 68.386719 193.261719 68.542969 193.414062 68.804688 C 193.5625 69.0625 193.5625 69.382812 193.414062 69.644531 L 189.824219 75.914062 C 189.675781 76.171875 189.675781 76.492188 189.828125 76.753906 C 189.976562 77.011719 190.257812 77.171875 190.554688 77.167969 L 196.417969 77.167969 C 198.316406 77.167969 199.570312 77.835938 199.902344 79.089844 C 200.128906 80.449219 199.804688 81.839844 199.007812 82.957031 L 191.785156 95.5 C 191.636719 95.757812 191.636719 96.078125 191.789062 96.335938 C 191.941406 96.597656 192.21875 96.753906 192.515625 96.753906 C 192.816406 96.75 193.09375 96.90625 193.246094 97.167969 C 193.398438 97.425781 193.398438 97.746094 193.246094 98.007812 L 190.597656 102.605469 C 190.445312 102.867188 190.167969 103.023438 189.867188 103.023438 L 173.695312 103.023438 C 173.429688 103.027344 173.183594 103.160156 173.027344 103.378906 L 171.632812 105.28125 C 171.441406 105.535156 171.410156 105.871094 171.550781 106.15625 C 171.695312 106.4375 171.984375 106.617188 172.296875 106.617188 L 176.472656 106.617188 C 176.722656 106.617188 176.957031 106.730469 177.117188 106.925781 C 177.273438 107.121094 177.335938 107.375 177.285156 107.621094 C 175.945312 113.726562 175.945312 120.054688 177.285156 126.160156 C 177.351562 126.410156 177.292969 126.679688 177.136719 126.882812 C 176.976562 127.089844 176.730469 127.207031 176.472656 127.207031 L 167.1875 127.207031 C 166.769531 127.210938 166.414062 126.90625 166.351562 126.496094 Z M 157.566406 93.636719 C 159.425781 89.625 161.53125 85.464844 163.640625 81.410156 C 163.78125 81.125 164.074219 80.949219 164.390625 80.949219 L 166.625 80.949219 C 166.914062 80.949219 167.183594 81.097656 167.339844 81.347656 C 167.492188 81.59375 167.503906 81.902344 167.375 82.164062 C 165.289062 86.15625 163.390625 90.292969 161.59375 94.328125 C 161.464844 94.628906 161.171875 94.824219 160.84375 94.828125 L 158.339844 94.828125 C 158.050781 94.835938 157.78125 94.691406 157.621094 94.449219 C 157.464844 94.207031 157.445312 93.898438 157.566406 93.636719 Z M 189.785156 84.441406 C 189.960938 84.25 189.992188 83.964844 189.863281 83.734375 C 189.734375 83.507812 189.476562 83.386719 189.21875 83.4375 L 186.132812 83.4375 C 185.832031 83.433594 185.550781 83.59375 185.402344 83.855469 C 183.316406 87.515625 180.644531 92.027344 178.496094 95.433594 C 178.335938 95.691406 178.328125 96.015625 178.476562 96.28125 C 178.625 96.546875 178.902344 96.710938 179.203125 96.710938 L 182.25 96.710938 C 182.550781 96.714844 182.832031 96.554688 182.980469 96.292969 Z M 189.785156 84.441406 "/>
<path style=" stroke:none;fill-rule:nonzero;fill:url(#linear0);" d="M 47.441406 207.109375 C 47.585938 207.238281 47.585938 207.550781 47.628906 207.675781 C 47.628906 208.199219 47.273438 208.429688 46.898438 208.238281 C 46.679688 208.140625 46.503906 207.972656 46.394531 207.757812 C 46.179688 207.289062 45.8125 206.90625 45.351562 206.671875 C 44.972656 206.375 44.652344 206.007812 44.414062 205.585938 C 44.335938 205.414062 44.335938 205.214844 44.414062 205.042969 C 44.558594 204.964844 44.730469 204.964844 44.875 205.042969 C 45.75 205.753906 46.625 206.464844 47.441406 207.109375 Z M 48.710938 169.675781 C 49.128906 170.089844 49.671875 170.351562 50.257812 170.410156 C 50.257812 169.886719 49.527344 169.34375 49.171875 168.964844 C 47.792969 167.53125 46.605469 165.921875 45.644531 164.179688 C 42.117188 158.535156 41.199219 150.15625 41.617188 149.421875 C 41.753906 147.578125 41.5625 145.726562 41.054688 143.949219 C 40.929688 144.261719 40.828125 144.582031 40.742188 144.910156 C 40.503906 147.304688 40.503906 149.722656 40.742188 152.121094 C 40.636719 152.832031 42.453125 163.636719 48.710938 169.675781 Z M 27.636719 151.996094 L 27.847656 151.996094 C 27.847656 149.652344 28.054688 145.722656 28.117188 143.382812 L 27.699219 143.382812 C 27.285156 145.472656 27.699219 149.339844 27.472656 151.492188 C 27.472656 151.664062 27.5 151.832031 27.554688 151.996094 Z M 50.070312 172.5625 C 49.984375 172.71875 49.984375 172.90625 50.070312 173.0625 C 50.378906 173.40625 50.878906 173.507812 51.300781 173.3125 C 51.132812 172.792969 50.925781 172.4375 50.464844 172.351562 C 50.28125 172.335938 50.097656 172.414062 49.984375 172.5625 Z M 31.601562 170.765625 C 31.875 171.847656 32.207031 172.914062 32.605469 173.960938 C 33.167969 175.582031 33.917969 177.132812 34.835938 178.582031 C 33.664062 175.605469 32.722656 172.546875 32.019531 169.425781 L 31.582031 169.425781 C 31.539062 169.871094 31.542969 170.320312 31.601562 170.765625 Z M 29.390625 158.703125 C 28.722656 160.257812 29.015625 162.0625 30.140625 163.324219 C 29.664062 161.546875 30.476562 161.609375 29.371094 158.703125 Z M 35.777344 184.640625 C 35.660156 184.460938 35.527344 184.292969 35.378906 184.140625 C 35.046875 186 35.085938 186.085938 36.734375 186.605469 C 36.378906 185.875 36.089844 185.25 35.777344 184.640625 Z M 27.136719 163.84375 C 26.992188 162.800781 26.59375 157.574219 26.636719 156.089844 C 26.636719 155.695312 26.636719 155.296875 26.636719 154.898438 C 26.398438 155.101562 26.242188 155.382812 26.199219 155.695312 C 25.980469 158.582031 25.980469 161.480469 26.199219 164.367188 C 26.429688 167.480469 28.617188 177.890625 29.496094 181.445312 C 31.042969 186.027344 33.203125 190.382812 35.921875 194.382812 C 35.921875 194.820312 36.714844 195.113281 37.320312 195.34375 C 35.96875 193.617188 34.789062 191.761719 33.792969 189.804688 C 28.871094 179.355469 27.429688 165.933594 27.136719 163.84375 Z M 164.578125 223.164062 C 164.394531 223.003906 164.152344 222.933594 163.910156 222.960938 C 163.667969 222.988281 163.449219 223.113281 163.304688 223.308594 C 162.90625 223.859375 162.355469 224.277344 161.71875 224.523438 C 161.535156 224.589844 161.394531 224.742188 161.332031 224.925781 C 161.273438 225.113281 161.300781 225.320312 161.40625 225.484375 C 161.554688 225.691406 161.929688 225.753906 162.09375 225.839844 C 163.136719 225.421875 164.183594 225.234375 164.597656 224.292969 C 164.765625 223.914062 165.078125 223.496094 164.578125 223.164062 Z M 159.070312 226.589844 C 159.257812 226.820312 159.613281 227.070312 159.84375 227.007812 C 160.070312 226.945312 160.195312 226.550781 160.382812 226.320312 L 159.464844 225.777344 C 159.300781 226.152344 159.007812 226.507812 159.070312 226.589844 Z M 44.9375 205.0625 C 44.792969 204.984375 44.621094 204.984375 44.476562 205.0625 C 44.398438 205.234375 44.398438 205.433594 44.476562 205.605469 C 44.714844 206.027344 45.035156 206.398438 45.414062 206.691406 C 45.875 206.929688 46.242188 207.3125 46.457031 207.78125 C 46.566406 207.992188 46.742188 208.164062 46.960938 208.261719 C 47.335938 208.429688 47.648438 208.261719 47.691406 207.695312 C 47.691406 207.570312 47.691406 207.238281 47.503906 207.132812 C 46.625 206.464844 45.75 205.753906 44.9375 205.0625 Z M 252.546875 112.175781 C 252.578125 112.363281 252.578125 112.554688 252.546875 112.742188 C 252.328125 113.238281 252.148438 113.746094 252.003906 114.265625 C 252.003906 114.265625 236.917969 205.042969 233.957031 206.402344 C 232.746094 205.941406 226.839844 190.496094 226.839844 190.496094 L 226.339844 189.972656 L 225.902344 188.40625 L 225.628906 187.796875 C 224.898438 188.671875 224.089844 189.476562 223.210938 190.203125 C 223.011719 190.339844 222.800781 190.464844 222.585938 190.578125 C 222.585938 190.222656 222.585938 189.972656 222.585938 189.742188 L 217.742188 193.921875 C 213.667969 198.097656 209.101562 201.761719 204.140625 204.832031 C 203.46875 205.65625 202.664062 206.363281 201.761719 206.921875 C 200.925781 207.402344 200.089844 207.925781 199.234375 208.46875 C 198.820312 209.222656 198.402344 209.285156 198.089844 209.535156 C 197.335938 210.183594 196.515625 210.75 195.648438 211.230469 C 193.558594 212.335938 191.347656 213.320312 189.179688 214.511719 C 187.738281 215.367188 186.257812 216.222656 184.753906 217.058594 C 184.296875 217.394531 183.816406 217.707031 183.335938 218 C 178.742188 220.824219 173.839844 223.117188 168.730469 224.835938 C 167.636719 225.105469 166.59375 225.550781 165.640625 226.152344 C 163.539062 227.726562 161.117188 228.824219 158.546875 229.371094 C 155.878906 229.933594 153.207031 231.125 150.535156 231.710938 C 139.859375 234.5625 128.914062 236.269531 117.882812 236.8125 C 111.609375 237.054688 105.324219 236.757812 99.101562 235.933594 C 99.644531 235.410156 100.019531 235.097656 100.75 235.433594 C 101.1875 235.601562 101.660156 235.675781 102.128906 235.640625 C 102.710938 235.496094 103.304688 235.390625 103.902344 235.328125 C 109.492188 236.183594 122.117188 234.992188 124.265625 234.804688 C 138.300781 233.421875 151.773438 228.566406 163.472656 220.675781 C 163.472656 220.675781 140.519531 231.878906 122.660156 233.21875 C 112.027344 234.007812 101.347656 233.894531 90.734375 232.882812 C 89.839844 232.734375 87.0625 232.316406 83.347656 231.460938 C 80.488281 231.132812 77.679688 230.429688 75.003906 229.371094 C 74.464844 229.480469 73.914062 229.269531 73.582031 228.828125 L 72.039062 228.285156 C 71.867188 228.320312 71.691406 228.320312 71.519531 228.285156 C 71.078125 228.148438 70.648438 227.964844 70.246094 227.742188 L 69.371094 227.21875 C 66.867188 226.1875 64.449219 224.972656 62.128906 223.582031 C 60.148438 222.375 58.234375 221.0625 56.390625 219.652344 C 55.355469 219.214844 54.417969 218.578125 53.636719 217.769531 L 51.488281 215.285156 C 46.417969 210.6875 41.945312 205.46875 38.175781 199.753906 C 38.738281 199.398438 38.863281 199.753906 39.09375 200.003906 C 39.324219 200.253906 42.808594 204.414062 43.539062 204.375 C 43.828125 203.808594 43.539062 203.410156 43.226562 203.015625 C 41.992188 201.574219 42.808594 202.304688 41.617188 200.925781 C 41.160156 200.359375 41.617188 200.089844 42.304688 200.925781 C 44.394531 202.554688 44.394531 201.949219 45.4375 203.015625 C 46 203.371094 46.675781 203.511719 47.335938 203.410156 C 47.605469 202.953125 46.125 200.945312 45.601562 200.152344 C 44.75 198.835938 43.683594 197.671875 42.453125 196.703125 C 41.828125 196.347656 42.847656 196.390625 42.453125 195.617188 C 42.054688 194.84375 40.09375 193.691406 40.367188 192.710938 C 40.636719 191.726562 41.910156 194.359375 43.035156 195.28125 C 43.453125 195.617188 43.953125 195.699219 44.457031 196.074219 C 44.957031 196.453125 48.253906 201.78125 49.003906 202.34375 C 49.753906 202.910156 54.117188 207.550781 56.058594 208.992188 C 60.792969 212.582031 66.058594 215.410156 71.664062 217.375 C 78.402344 219.757812 94.21875 220.757812 94.21875 220.757812 C 87.042969 219.339844 79.949219 217.511719 72.980469 215.285156 C 57.371094 209.011719 52.445312 201.886719 51.96875 201.363281 C 50.070312 199.273438 40.972656 189.242188 40.199219 188.113281 C 39.992188 187.109375 38.613281 185.476562 38.675781 184.871094 C 38.738281 184.265625 39.386719 184.476562 39.574219 184.746094 C 39.761719 185.019531 40.910156 187.484375 41.554688 186.835938 C 42.203125 186.1875 40.929688 185.855469 40.824219 185.269531 C 40.613281 183.566406 39.925781 181.957031 38.84375 180.628906 C 37.988281 179.640625 37.320312 178.496094 36.882812 177.265625 C 36.644531 176.695312 36.5625 176.074219 36.652344 175.464844 L 36.921875 175.363281 C 37.207031 175.75 37.464844 176.152344 37.695312 176.574219 C 38.195312 177.660156 41.578125 183.386719 41.742188 183.554688 C 42.640625 184.769531 43.496094 185.894531 44.332031 186.921875 C 45.902344 189.167969 47.761719 191.199219 49.859375 192.960938 C 51.839844 194.863281 54.117188 196.429688 56.597656 197.601562 C 48.710938 192.125 46.019531 188.113281 41.554688 180.378906 C 40.480469 178.265625 39.558594 176.082031 38.800781 173.835938 C 38.300781 172.664062 37.988281 171.371094 37.570312 170.660156 C 36.964844 169.613281 36.191406 168.570312 35.484375 167.609375 C 34.941406 168.046875 35.484375 169.96875 35.777344 170.386719 C 36.066406 170.804688 36.316406 171.328125 36.066406 171.914062 C 35.652344 172.082031 35.359375 171.601562 35.273438 171.472656 C 34.710938 170.535156 33.648438 167.878906 33.398438 167.292969 C 31.863281 163.878906 31.148438 160.148438 31.308594 156.40625 C 31.183594 153.769531 31.308594 151.828125 31.308594 150.132812 C 31.308594 147.417969 32.394531 138.429688 32.730469 136.066406 C 32.8125 135.71875 32.914062 135.378906 33.042969 135.042969 C 33.4375 136.03125 33.566406 137.105469 33.417969 138.15625 C 33.417969 138.992188 33.417969 144.199219 33.417969 145.222656 C 32.910156 148.925781 33.324219 152.695312 34.628906 156.195312 C 36.066406 159.625 35.085938 159.980469 38.800781 168.359375 C 50.171875 194.382812 72.726562 196.660156 72.726562 196.660156 C 72.726562 196.660156 50.609375 188.761719 41.054688 170.054688 C 38.21875 164.472656 40.179688 169.65625 37.714844 160.25 C 37.363281 158.914062 37.027344 156.90625 37.714844 156.96875 C 38.40625 157.03125 38.28125 155.402344 38.28125 154.667969 C 38.28125 153.9375 38.132812 153.332031 38.40625 152.933594 C 38.675781 152.539062 38.820312 155.546875 39.261719 156.71875 C 39.699219 157.886719 38.027344 156.71875 40.679688 162.988281 C 43.5625 169.328125 47.953125 174.863281 53.46875 179.101562 C 53.804688 179.3125 54.179688 179.480469 54.492188 179.710938 C 55.765625 180.609375 56.976562 181.613281 58.289062 182.425781 C 59.164062 182.96875 60.230469 183.199219 61.191406 183.660156 C 63.089844 184.578125 64.945312 185.582031 66.824219 186.523438 C 66.824219 186.523438 67.679688 186.941406 69.140625 187.570312 L 70.703125 188.113281 C 71.804688 188.460938 72.945312 188.78125 74.125 189.074219 L 74.691406 189.074219 C 76.214844 189.386719 77.714844 189.804688 79.257812 189.992188 C 81.046875 190.070312 82.824219 190.328125 84.558594 190.765625 C 88.023438 191.132812 91.507812 191.300781 94.992188 191.269531 L 97.351562 191.058594 C 97.664062 191.058594 98.015625 190.933594 98.164062 191.207031 L 98.289062 191.207031 C 102.390625 191.023438 106.476562 190.570312 110.515625 189.847656 C 112.101562 189.511719 114.019531 189.242188 115.417969 189.09375 L 115.566406 189.09375 L 116.921875 188.988281 C 116.503906 188.988281 117.757812 188.800781 118.171875 188.695312 C 118.589844 188.59375 119.21875 188.152344 119.71875 188.007812 C 121.804688 187.441406 123.472656 186.585938 125.433594 185.917969 C 129.359375 184.453125 133.320312 182.804688 137.265625 181.382812 C 137.265625 181.382812 139.019531 180.734375 141.917969 179.5 C 145.527344 177.722656 149.097656 175.863281 152.683594 174.046875 C 153.25 173.753906 153.8125 173.355469 154.292969 173.667969 C 155.816406 172.875 157.402344 172.019531 159.007812 171.140625 C 165.820312 166.714844 172.363281 161.886719 178.601562 156.675781 C 179.582031 155.921875 181.707031 154.125 181.6875 154.1875 C 183.773438 152.539062 183.921875 152.246094 183.984375 151.660156 C 184.046875 151.074219 181.5625 150.550781 181.5625 150.550781 C 181.5625 150.550781 161.65625 146.015625 161.636719 145.285156 C 161.617188 144.554688 172.964844 141.3125 180.8125 138.242188 C 181.285156 137.792969 181.828125 137.425781 182.417969 137.15625 C 189.785156 135.292969 202.429688 128.125 209.878906 126.578125 C 232.976562 116.816406 246.703125 109.855469 248.414062 108.957031 C 252.441406 106.867188 252.589844 111.046875 252.589844 111.046875 L 252.339844 112.304688 Z M 186.425781 153.9375 C 184.023438 156.027344 181.6875 158.117188 179.246094 160.207031 C 176.804688 162.296875 174.34375 164.199219 171.820312 166.101562 C 169.292969 168.003906 166.664062 169.78125 164.015625 171.515625 C 162.625 172.378906 161.273438 173.210938 159.96875 174.003906 C 158.609375 174.820312 157.210938 175.570312 155.792969 176.28125 C 158.796875 175.15625 161.6875 173.757812 164.433594 172.101562 C 167.199219 170.507812 169.875 168.753906 172.445312 166.855469 C 175.003906 164.945312 177.464844 162.898438 179.808594 160.730469 C 181 159.664062 182.105469 158.515625 183.253906 157.40625 C 184.402344 156.300781 185.402344 155.128906 186.425781 153.9375 Z M 186.425781 153.9375 "/>
<path style=" stroke:none;fill-rule:nonzero;fill:url(#linear1);" d="M 222.292969 64.917969 C 222.417969 65.945312 222.105469 66.820312 221.480469 67.007812 C 221.113281 60.535156 219.292969 54.226562 216.15625 48.554688 C 216.808594 48.363281 217.503906 48.628906 217.867188 49.203125 C 220.230469 54.148438 221.726562 59.464844 222.292969 64.917969 Z M 216.367188 47.238281 C 216.367188 45.730469 206.246094 35.238281 205.222656 34.882812 C 205.058594 34.882812 204.828125 34.882812 204.472656 34.882812 C 204.722656 35.15625 212.671875 42.285156 214.761719 46.066406 C 215.03125 46.738281 215.664062 47.195312 216.386719 47.238281 Z M 200.238281 31.726562 C 200.089844 31.726562 199.839844 31.726562 199.550781 31.726562 C 200.6875 32.660156 201.953125 33.429688 203.304688 34.007812 C 202.382812 33.128906 201.359375 32.363281 200.257812 31.726562 Z M 221.894531 72.296875 C 221.875 72.5 221.957031 72.699219 222.109375 72.832031 C 222.261719 72.964844 222.472656 73.015625 222.667969 72.964844 C 222.894531 71.410156 222.757812 69.820312 222.269531 68.328125 L 221.855469 68.472656 C 221.769531 69.746094 221.894531 71.066406 221.894531 72.296875 Z M 266.902344 76.875 C 266.632812 78.726562 266.234375 80.554688 265.714844 82.351562 C 265.238281 84.75 264.386719 87.054688 263.1875 89.1875 L 262.542969 90.523438 C 261.832031 91.925781 261.226562 92.96875 260.851562 93.597656 C 260.289062 94.671875 259.640625 95.699219 258.910156 96.667969 C 258.429688 97.503906 257.929688 98.339844 257.386719 99.175781 C 257.273438 99.304688 257.085938 99.339844 256.933594 99.261719 C 256.78125 99.183594 256.703125 99.011719 256.742188 98.84375 C 258.074219 95.808594 258.925781 92.585938 259.265625 89.289062 C 258.304688 91.378906 255.886719 93.722656 255.53125 94.640625 C 254.980469 95.765625 254.34375 96.847656 253.632812 97.878906 C 252.246094 99.097656 251.035156 100.503906 250.042969 102.0625 C 249.5 102.9375 247.558594 104.152344 247.351562 104.421875 C 246.976562 105.058594 246.292969 105.445312 245.558594 105.445312 C 245.871094 103.816406 246.746094 103.859375 247.394531 102.519531 C 248.039062 101.183594 248.5625 100.535156 249.125 99.175781 C 248.476562 99.175781 247.457031 101.265625 246.765625 101.519531 C 246.296875 101.660156 245.792969 101.597656 245.371094 101.351562 C 245.746094 100.492188 245.828125 99.261719 246.496094 98.757812 C 247.558594 97.816406 249.105469 91.378906 249.105469 90.816406 C 249.429688 88.6875 249.929688 86.589844 250.605469 84.546875 C 250.367188 82.90625 250.25 81.25 250.253906 79.59375 C 250.273438 79.339844 250.195312 79.09375 250.027344 78.902344 C 249.863281 78.710938 249.628906 78.597656 249.375 78.589844 C 248.625 78.714844 248.351562 81.765625 248.394531 82.394531 C 248.394531 82.394531 248.394531 82.726562 248.394531 83.167969 C 248.589844 83.5625 248.730469 83.984375 248.8125 84.421875 C 248.8125 84.878906 248.8125 86.34375 248.375 88.476562 C 247.753906 91.691406 246.640625 94.792969 245.078125 97.671875 C 243.804688 99.46875 244.117188 98.695312 242.511719 99.992188 C 240.90625 101.289062 244.054688 99.742188 240.195312 101.726562 C 236.335938 103.710938 235.667969 104.507812 235.457031 104.945312 C 235.25 105.382812 235.019531 103.023438 236.085938 102.25 C 236.101562 102.023438 236.207031 101.8125 236.375 101.664062 L 240.800781 90.210938 C 241.492188 87.007812 241.960938 83.757812 242.199219 80.492188 C 243.117188 74.535156 239.609375 61.679688 239.609375 61.679688 C 239.609375 61.679688 241.695312 75.347656 240.550781 81.429688 C 239.8125 88.351562 237.5625 95.023438 233.957031 100.972656 C 233.644531 101.453125 230.097656 106.742188 229.972656 106.804688 C 228.386719 107.578125 226.695312 112.011719 225.796875 111.90625 C 225.296875 110.59375 225.828125 109.109375 227.050781 108.414062 C 228.101562 107.921875 228.871094 106.976562 229.136719 105.84375 C 229.632812 103.949219 230.335938 102.113281 231.222656 100.367188 C 231.828125 99.742188 232.265625 97.359375 231.660156 97.148438 C 231.054688 96.941406 230.699219 97.316406 230.472656 97.902344 C 229.992188 99.226562 229.371094 100.496094 228.613281 101.683594 C 227.675781 102.207031 226.882812 102.960938 226.320312 103.878906 C 225.964844 104.296875 220.9375 111.78125 220.058594 111.738281 C 218.617188 112.414062 217.304688 113.332031 216.179688 114.457031 C 215.773438 114.992188 215.324219 115.492188 214.84375 115.960938 C 214.613281 116.167969 213.800781 116.191406 213.257812 116.230469 L 212.671875 116.230469 L 212.796875 116.042969 C 213.535156 115.230469 214.167969 114.324219 214.675781 113.347656 L 214.15625 114.332031 L 214.488281 113.722656 L 214.488281 113.621094 L 214.863281 112.910156 L 215.261719 112.136719 L 215.261719 111.988281 L 215.636719 111.238281 L 215.949219 110.589844 L 216.074219 110.339844 L 217.578125 107.222656 C 220.492188 101.386719 222.597656 95.175781 223.835938 88.769531 C 224.546875 84.339844 225.003906 79.871094 225.214844 75.390625 C 225.214844 73.445312 225.214844 72.421875 225.214844 71.671875 C 224.398438 50.140625 214.78125 37.496094 203.765625 30.140625 C 203.4375 29.996094 203.117188 29.835938 202.804688 29.660156 C 201.46875 28.863281 200.195312 27.964844 198.796875 27.253906 C 197.878906 26.773438 196.710938 26.628906 195.8125 26.253906 C 193.851562 25.480469 191.914062 24.644531 189.972656 23.828125 C 189.972656 23.828125 189.09375 23.472656 187.59375 22.96875 C 185.507812 22.425781 183.609375 21.925781 181.625 21.425781 L 181.207031 21.320312 C 177.871094 20.6875 174.484375 20.351562 171.089844 20.316406 C 163.199219 20.347656 155.324219 21.046875 147.550781 22.40625 C 147.039062 22.558594 146.515625 22.675781 145.988281 22.761719 C 144.964844 22.90625 143.902344 23.410156 142.960938 23.660156 C 140.875 24.160156 138.789062 24.578125 136.703125 25.0625 C 136.703125 25.0625 135.867188 25.269531 134.46875 25.667969 L 134.136719 25.769531 C 132.238281 26.460938 130.359375 27.191406 128.480469 27.863281 C 128.320312 27.933594 128.152344 27.992188 127.980469 28.027344 L 128 28.027344 C 122.617188 29.949219 117.335938 32.152344 112.183594 34.632812 C 111.777344 34.886719 111.351562 35.109375 110.914062 35.300781 C 108.347656 36.617188 105.757812 38.082031 103.085938 39.773438 L 111.746094 42.617188 C 110.203125 43.285156 96.578125 47.570312 87.148438 49.933594 C 85.652344 50.558594 84.101562 51.035156 82.515625 51.355469 C 82.515625 51.355469 82.972656 51.019531 83.285156 50.851562 C 81.914062 51.175781 80.519531 51.390625 79.113281 51.5 C 78.570312 51.5 78.195312 51.5 78.070312 51.3125 C 77.070312 50.121094 97.097656 23.097656 97.097656 23.097656 L 96.933594 31.457031 C 96.933594 31.457031 117.796875 15.988281 141.417969 8.320312 L 142.417969 8.003906 L 142.835938 7.816406 C 145.160156 6.808594 147.589844 6.066406 150.078125 5.601562 C 150.613281 5.515625 151.136719 5.347656 151.621094 5.101562 C 153.375 4.53125 155.1875 4.175781 157.023438 4.035156 C 166.957031 1.671875 177.117188 0.425781 187.320312 0.3125 C 188.34375 0.3125 189.410156 0.167969 190.722656 0.1875 L 191.996094 0.1875 C 192.214844 0.0898438 192.445312 0.0273438 192.683594 0 C 192.96875 -0.0195312 193.246094 0.0625 193.476562 0.230469 L 194.769531 0.417969 C 195.015625 0.234375 195.292969 0.09375 195.585938 0 C 196.042969 -0.046875 196.503906 -0.046875 196.960938 0 C 198.441406 0.292969 199.925781 0.628906 201.40625 0.898438 C 202.074219 1.023438 202.742188 0.898438 203.492188 1.085938 C 206.007812 1.34375 208.484375 1.886719 210.878906 2.695312 C 211.421875 2.894531 211.992188 3 212.570312 3.011719 C 213.761719 3.042969 214.929688 3.34375 215.992188 3.886719 L 217.765625 4.765625 C 231.957031 9.433594 244.613281 17.878906 254.382812 29.199219 C 254.382812 29.199219 255.15625 30.097656 256.34375 31.707031 L 257.035156 32.691406 L 257.179688 32.898438 L 257.179688 33.046875 L 257.449219 33.464844 C 264.1875 44.050781 267.597656 56.421875 267.238281 68.972656 C 267.347656 71.613281 267.214844 74.257812 266.839844 76.875 Z M 250.210938 30.890625 C 253.527344 34.382812 256.40625 38.265625 258.785156 42.449219 L 260.519531 45.480469 C 259.804688 43.050781 258.847656 40.695312 257.660156 38.457031 C 256.136719 35.5 254.328125 32.699219 252.253906 30.097656 C 249.597656 26.902344 246.644531 23.96875 243.429688 21.339844 C 238.871094 17.652344 233.777344 14.683594 228.324219 12.539062 C 228.324219 12.539062 240.320312 20.503906 245.933594 26.292969 C 247.414062 27.839844 248.832031 29.34375 250.105469 30.851562 Z M 129.859375 14.839844 C 124.621094 17.117188 113.164062 23.035156 110.140625 25.917969 C 113.667969 23.972656 125.582031 17.765625 130.339844 15.886719 C 141.648438 11.433594 149.117188 8.652344 153.101562 7.523438 C 145.105469 9.085938 137.308594 11.539062 129.859375 14.839844 Z M 129.859375 14.839844 "/>
</g>
</svg>
