<svg xmlns="http://www.w3.org/2000/svg" viewBox="0 0 283.16 70.79"><g id="レイヤー_2" data-name="レイヤー 2"><g id="ロゴ"><g id="ロゴ-2" data-name="ロゴ"><path d="M37.75,0V4.72A28.32,28.32,0,0,1,66.07,33h4.72A33,33,0,0,0,37.75,0Z" style="fill:#db062c"/><path d="M37.75,4.72V9.44A23.59,23.59,0,0,1,61.35,33h4.72A28.32,28.32,0,0,0,37.75,4.72Z" style="fill:#ef7a00"/><path d="M37.75,9.44v4.72A18.87,18.87,0,0,1,56.63,33h4.72A23.59,23.59,0,0,0,37.75,9.44Z" style="fill:#f3eb1c"/><path d="M37.75,14.16v4.72A14.16,14.16,0,0,1,51.91,33h4.72A18.87,18.87,0,0,0,37.75,14.16Z" style="fill:#009c4d"/><path d="M37.75,18.88V23.6A9.43,9.43,0,0,1,47.19,33h4.72A14.16,14.16,0,0,0,37.75,18.88Z" style="fill:#4fc2f1"/><path d="M37.75,23.6v4.72A4.71,4.71,0,0,1,42.47,33h4.72A9.43,9.43,0,0,0,37.75,23.6Z" style="fill:#0065b2"/><path d="M37.75,28.32V33h4.72A4.71,4.71,0,0,0,37.75,28.32Z" style="fill:#643791"/><path d="M33,4.72a33,33,0,0,0-27,52l-6,14,14-6a33,33,0,0,0,52-27H33ZM18,36.57a9.14,9.14,0,0,1,0-18.28,9,9,0,0,1,3.91.89h-.07a5,5,0,1,0,5,5.76,8.94,8.94,0,0,1,.36,2.5A9.15,9.15,0,0,1,18,36.57Z" style="fill:#2d4b71"/><path d="M21.83,29.2a5,5,0,1,1,0-10h.07A9,9,0,0,0,18,18.29a9.14,9.14,0,1,0,9.15,9.14,8.94,8.94,0,0,0-.36-2.5A5,5,0,0,1,21.83,29.2Z" style="fill:#fff"/><rect x="96.56" y="15.21" width="25.39" height="10.09" style="fill:#0065b2"/><path d="M108.62,58.1H122V48h-12.7c-3.81,0-5.08-1.26-5.08-5v-5H94v5.67C94,54.32,100.37,58.1,108.62,58.1Z" style="fill:#0065b2"/><rect x="81.33" y="12.69" width="10.15" height="45.41" style="fill:#0065b2"/><rect x="136.54" y="16.47" width="10.15" height="18.92" style="fill:#4fc2f1"/><rect x="148.6" y="16.47" width="10.16" height="18.92" style="fill:#4fc2f1"/><path d="M139.08,58.1h19.68V48h-19c-3.81,0-5.08-1.26-5.08-5V12.69H124.48v30.9C124.48,54.32,130.83,58.1,139.08,58.1Z" style="fill:#4fc2f1"/><path d="M181.61,29.09c0,3.78-1.27,5-5.08,5V44.22h.63c10.79,0,14.6-6.3,14.6-14.5V25.3h5.08V15.21h-5.08V12.69H181.61v2.52H161.3V25.3h20.31Z" style="fill:#009c4d"/><path d="M175.89,58.1h21V48H176.53c-3.81,0-5.08-1.26-5.08-5V35.39H161.3v8.2C161.3,54.32,167.64,58.1,175.89,58.1Z" style="fill:#009c4d"/><path d="M237.46,44.22q0,3.8-3.81,3.79t-3.81-3.79V34.13c0-7.57-5.07-11.35-12.69-11.35h-2.54c-1.27,0-3.81,0-5.08.74V12.69H199.38V58.1h10.15V37.92c0-3.79,1.27-5.05,5.08-5.05s5.08,1.26,5.08,5.05v8.83q0,11.36,11.42,11.35h5.08q11.43,0,11.42-11.35V43H237.46Z" style="fill:#ef7a00"/><rect x="260.94" y="16.47" width="10.15" height="18.92" style="fill:#db062c"/><rect x="273" y="16.47" width="10.16" height="18.92" style="fill:#db062c"/><path d="M259,43V12.69H248.88v30.9c0,10.73,6.35,14.51,14.6,14.51h19.68V48h-19C260.31,48,259,46.75,259,43Z" style="fill:#db062c"/></g></g></g></svg>